<svg width="223" height="74" viewBox="0 0 223 74" fill="none" xmlns="http://www.w3.org/2000/svg">
<g clip-path="url(#clip0_501_348)">
<path d="M214.736 74.0001H8.26296C3.72045 74.0001 0.00390625 69.8377 0.00390625 64.7503V9.25129C0.00390625 4.16385 3.72045 0.00146484 8.26296 0.00146484H214.736C219.279 0.00146484 222.995 4.16385 222.995 9.25129V64.7503C222.995 69.8377 219.279 74.0001 214.736 74.0001Z" fill="#100F0D"/>
<path d="M214.736 0.00146484H8.26296C3.72045 0.00146484 0.00390625 4.16385 0.00390625 9.25129V64.7503C0.00390625 69.8377 3.72045 74.0001 8.26296 74.0001H214.736C219.279 74.0001 222.995 69.8377 222.995 64.7503V9.25129C222.995 4.16385 219.279 0.00146484 214.736 0.00146484ZM214.736 1.48069C218.562 1.48069 221.674 4.9668 221.674 9.25129V64.7503C221.674 69.0347 218.562 72.5209 214.736 72.5209H8.26296C4.43739 72.5209 1.32605 69.0347 1.32605 64.7503V9.25129C1.32605 4.9668 4.43739 1.48069 8.26296 1.48069H214.736Z" fill="#A2A2A1"/>
<path d="M176.641 55.5003H179.724V32.3719H176.641V55.5003ZM204.404 40.7039L200.87 50.7306H200.765L197.098 40.7039H193.778L199.278 54.7177L196.142 62.5135H199.356L207.831 40.7046L204.404 40.7039ZM186.923 52.8732C185.915 52.8732 184.506 52.3073 184.506 50.909C184.506 49.124 186.261 48.4397 187.774 48.4397C189.128 48.4397 189.767 48.7664 190.59 49.213C190.351 51.3556 188.704 52.8732 186.923 52.8732ZM187.296 40.198C185.065 40.198 182.754 41.2993 181.797 43.7391L184.533 45.0181C185.118 43.7391 186.206 43.3229 187.349 43.3229C188.943 43.3229 190.564 44.3931 190.59 46.298V46.5357C190.032 46.1786 188.836 45.6433 187.376 45.6433C184.425 45.6433 181.424 47.4577 181.424 50.8498C181.424 53.9442 183.842 55.9379 186.551 55.9379C188.623 55.9379 189.767 54.8965 190.483 53.6761H190.59V55.4624H193.567V46.5948C193.567 42.4888 190.828 40.198 187.296 40.198ZM168.247 43.5193H163.863V35.592H168.247C170.551 35.592 171.86 37.7282 171.86 39.5556C171.86 41.3478 170.551 43.5193 168.247 43.5193ZM168.168 32.3725H160.782V55.5008H163.863V46.7389H168.168C171.584 46.7389 174.942 43.9697 174.942 39.5564C174.942 35.144 171.584 32.3725 168.168 32.3725ZM127.895 52.8771C125.766 52.8771 123.984 50.8796 123.984 48.1387C123.984 45.3659 125.766 43.3403 127.895 43.3403C129.998 43.3403 131.647 45.3661 131.647 48.1387C131.647 50.8796 129.998 52.8771 127.895 52.8771ZM131.434 41.9986H131.328C130.636 41.0749 129.305 40.2403 127.629 40.2403C124.116 40.2403 120.896 43.6981 120.896 48.1387C120.896 52.5491 124.116 55.9765 127.629 55.9765C129.305 55.9765 130.636 55.1418 131.328 54.1887H131.434V55.3203C131.434 58.3316 129.998 59.9401 127.682 59.9401C125.794 59.9401 124.623 58.4204 124.143 57.139L121.456 58.3907C122.227 60.4761 124.275 63.0402 127.682 63.0402C131.302 63.0402 134.362 60.6554 134.362 54.8432V40.717H131.435L131.434 41.9986ZM136.492 55.4996H139.577V32.3712H136.492V55.4996ZM144.128 47.87C144.049 44.8298 146.232 43.2804 147.801 43.2804C149.026 43.2804 150.062 43.9661 150.41 44.949L144.128 47.87ZM153.708 45.2467C153.123 43.4893 151.34 40.2403 147.694 40.2403C144.075 40.2403 141.068 43.4292 141.068 48.1085C141.068 52.5195 144.049 55.9766 148.04 55.9766C151.259 55.9766 153.123 53.7719 153.895 52.4898L151.5 50.7013C150.701 52.0129 149.611 52.8772 148.04 52.8772C146.471 52.8772 145.352 52.0723 144.635 50.4926L154.027 46.1415L153.708 45.2467ZM78.8681 42.6546V45.9925H85.9997C85.7868 47.8701 85.228 49.2408 84.3763 50.1947C83.3381 51.3567 81.7148 52.6387 78.868 52.6387C74.477 52.6387 71.0444 48.675 71.0444 43.7574C71.0444 38.8398 74.477 34.8755 78.868 34.8755C81.2365 34.8755 82.9658 35.9189 84.2432 37.2601L86.3461 34.9051C84.5626 32.998 82.1946 31.5376 78.868 31.5376C72.8529 31.5376 67.7969 37.0216 67.7969 43.7574C67.7969 50.4925 72.8529 55.9766 78.868 55.9766C82.1141 55.9766 84.5628 54.7843 86.4784 52.5492C88.4478 50.3436 89.06 47.2442 89.06 44.7403C89.06 43.9663 89.0064 43.2509 88.9 42.6546H78.8681ZM97.1689 52.8771C95.0395 52.8771 93.2033 50.91 93.2033 48.1085C93.2033 45.2771 95.0395 43.3404 97.1689 43.3404C99.2975 43.3404 101.134 45.2771 101.134 48.1085C101.134 50.91 99.2975 52.8771 97.1689 52.8771ZM97.1689 40.2403C93.2826 40.2403 90.1163 43.5484 90.1163 48.1085C90.1163 52.6387 93.2826 55.9766 97.1689 55.9766C101.054 55.9766 104.221 52.6387 104.221 48.1085C104.221 43.5484 101.054 40.2403 97.1689 40.2403ZM112.552 52.8771C110.424 52.8771 108.587 50.91 108.587 48.1085C108.587 45.2771 110.424 43.3404 112.552 43.3404C114.682 43.3404 116.517 45.2771 116.517 48.1085C116.517 50.91 114.682 52.8771 112.552 52.8771ZM112.552 40.2403C108.667 40.2403 105.501 43.5484 105.501 48.1085C105.501 52.6387 108.667 55.9766 112.552 55.9766C116.439 55.9766 119.605 52.6387 119.605 48.1085C119.605 43.5484 116.439 40.2403 112.552 40.2403Z" fill="white"/>
<path d="M34.2215 35.9353L16.6367 56.8395C16.6374 56.8438 16.6387 56.8474 16.6393 56.8519C17.1786 59.1218 19.0299 60.7932 21.2269 60.7932C22.1052 60.7932 22.9298 60.5273 23.6369 60.0604L23.6931 60.0236L43.4881 47.2308L34.2215 35.9353Z" fill="#EB3131"/>
<path d="M52.0115 32.376L51.9947 32.3631L43.4486 26.8145L33.8203 36.4099L43.482 47.2293L51.983 41.7359C53.4734 40.8347 54.4852 39.075 54.4852 37.0458C54.4852 35.0311 53.4872 33.2801 52.0115 32.376Z" fill="#F6B60B"/>
<path d="M16.6339 17.1636C16.5282 17.6002 16.4727 18.0575 16.4727 18.5324V55.472C16.4727 55.946 16.5276 56.4049 16.6346 56.8399L34.8264 36.4699L16.6339 17.1636Z" fill="#5778C5"/>
<path d="M34.3509 37.0018L43.4534 26.8105L23.6807 13.9713C22.962 13.4892 22.1232 13.2109 21.2256 13.2109C19.0286 13.2109 17.1748 14.8854 16.6354 17.158C16.6348 17.1602 16.6348 17.1617 16.6348 17.1637L34.3509 37.0018Z" fill="#3BAD49"/>
<path d="M78.2898 18.0958H73.4712V19.4313H77.082C76.9839 20.5211 76.5968 21.3767 75.9438 21.9982C75.2908 22.6197 74.4571 22.9318 73.4712 22.9318C72.3898 22.9318 71.4735 22.5099 70.7226 21.6716C69.9869 20.816 69.6128 19.758 69.6128 18.4833C69.6128 17.2087 69.9869 16.1506 70.7226 15.2951C71.4735 14.4569 72.3898 14.0377 73.4712 14.0377C74.0262 14.0377 74.5553 14.1446 75.0404 14.3788C75.5257 14.6128 75.9153 14.9395 76.2199 15.3587L77.1362 14.3325C76.7206 13.8035 76.1942 13.3989 75.541 13.104C74.888 12.8091 74.2067 12.6676 73.4711 12.6676C72.0284 12.6676 70.8051 13.2283 69.8062 14.347C68.8073 15.4685 68.3066 16.8502 68.3066 18.4833C68.3066 20.1164 68.8073 21.5012 69.8062 22.6199C70.805 23.7384 72.0284 24.2993 73.4711 24.2993C74.9861 24.2993 76.194 23.7558 77.1232 22.6515C77.9413 21.7325 78.3594 20.4895 78.3594 18.9344C78.3594 18.6713 78.3311 18.3907 78.2898 18.0958ZM80.1566 12.9159V24.0505H85.961V22.6832H81.4341V19.1511H85.5173V17.8156H81.4341V14.2862H85.961V12.9159L80.1566 12.9159ZM94.1003 14.2862V12.9159H87.2684V14.2862H90.0457V24.0505H91.3232V14.2862H94.1003ZM100.285 12.9159H99.0079V24.0505H100.285V12.9159ZM108.718 14.2862V12.9159H101.886V14.2862H104.663V24.0505H105.941V14.2862H108.718ZM121.61 14.3643C120.624 13.2282 119.416 12.6675 117.973 12.6675C116.528 12.6675 115.32 13.2282 114.334 14.3469C113.348 15.4512 112.863 16.8357 112.863 18.4832C112.863 20.1308 113.348 21.5155 114.334 22.6198C115.32 23.7383 116.528 24.2992 117.973 24.2992C119.403 24.2992 120.624 23.7383 121.61 22.6198C122.596 21.5156 123.081 20.1309 123.081 18.4832C123.081 16.8501 122.596 15.4683 121.61 14.3643ZM115.25 15.295C115.986 14.4568 116.889 14.0376 117.973 14.0376C119.055 14.0376 119.958 14.4568 120.681 15.295C121.416 16.1188 121.778 17.1939 121.778 18.4832C121.778 19.7754 121.416 20.8476 120.681 21.6716C119.958 22.5098 119.055 22.9317 117.973 22.9317C116.889 22.9317 115.986 22.5098 115.25 21.6716C114.53 20.8304 114.169 19.7754 114.169 18.4832C114.169 17.194 114.53 16.1361 115.25 15.295ZM126.116 17.1161L126.062 14.9682H126.116L131.17 24.0504H132.504V12.9158H131.227V19.4311L131.281 21.579H131.227L126.395 12.9158H124.839V24.0504H126.116V17.1161Z" fill="white" stroke="white" stroke-width="0.26666" stroke-miterlimit="10"/>
</g>
<defs>
<clipPath id="clip0_501_348">
<rect width="223" height="74" fill="white"/>
</clipPath>
</defs>
</svg>
