<svg width="1617" height="835" viewBox="0 0 1617 835" fill="none" xmlns="http://www.w3.org/2000/svg">
<path fill-rule="evenodd" clip-rule="evenodd" d="M1136.52 325.221C1136.85 324.752 1136.41 324.131 1135.86 324.281L1133.35 324.962L1131.22 323.479C1130.75 323.153 1130.13 323.59 1130.28 324.142L1130.96 326.647L1129.48 328.779C1129.15 329.248 1129.59 329.869 1130.14 329.719L1132.65 329.038L1134.78 330.521C1135.25 330.847 1135.87 330.41 1135.72 329.858L1135.04 327.353L1136.52 325.221Z" fill="#EFEFF1"/>
<path fill-rule="evenodd" clip-rule="evenodd" d="M962.522 543.221C962.848 542.752 962.41 542.131 961.859 542.281L959.353 542.962L957.221 541.479C956.752 541.153 956.132 541.59 956.281 542.142L956.962 544.647L955.479 546.779C955.153 547.248 955.591 547.869 956.142 547.719L958.648 547.038L960.78 548.521C961.249 548.847 961.869 548.41 961.72 547.858L961.039 545.353L962.522 543.221Z" fill="#EFEFF1"/>
<path fill-rule="evenodd" clip-rule="evenodd" d="M1177.52 54.2209C1177.85 53.7516 1177.41 53.1313 1176.86 53.2809L1174.35 53.9616L1172.22 52.4789C1171.75 52.1528 1171.13 52.5902 1171.28 53.1418L1171.96 55.6475L1170.48 57.7791C1170.15 58.2484 1170.59 58.8687 1171.14 58.7191L1173.65 58.0384L1175.78 59.5211C1176.25 59.8472 1176.87 59.4098 1176.72 58.8582L1176.04 56.3525L1177.52 54.2209Z" fill="#EFEFF1"/>
<path fill-rule="evenodd" clip-rule="evenodd" d="M1612.13 281.299C1612.69 281.415 1613.09 280.77 1612.74 280.321L1611.13 278.281L1611.66 275.74C1611.78 275.18 1611.13 274.78 1610.68 275.134L1608.64 276.74L1606.1 276.209C1605.54 276.093 1605.14 276.738 1605.5 277.187L1607.1 279.227L1606.57 281.769C1606.45 282.328 1607.1 282.728 1607.55 282.375L1609.59 280.768L1612.13 281.299Z" fill="#EFEFF1"/>
<path fill-rule="evenodd" clip-rule="evenodd" d="M97.5216 104.221C97.8477 103.752 97.4103 103.131 96.8587 103.281L94.353 103.962L92.2214 102.479C91.7521 102.153 91.1317 102.59 91.2813 103.142L91.9621 105.647L90.4794 107.779C90.1532 108.248 90.5907 108.869 91.1422 108.719L93.648 108.038L95.7796 109.521C96.2489 109.847 96.8692 109.41 96.7196 108.858L96.0388 106.353L97.5216 104.221Z" fill="#EFEFF1"/>
<path fill-rule="evenodd" clip-rule="evenodd" d="M584.522 662.221C584.848 661.752 584.41 661.131 583.859 661.281L581.353 661.962L579.221 660.479C578.752 660.153 578.132 660.59 578.281 661.142L578.962 663.647L577.479 665.779C577.153 666.248 577.591 666.869 578.142 666.719L580.648 666.038L582.78 667.521C583.249 667.847 583.869 667.41 583.72 666.858L583.039 664.353L584.522 662.221Z" fill="#EFEFF1"/>
<path fill-rule="evenodd" clip-rule="evenodd" d="M1433.52 563.221C1433.85 562.752 1433.41 562.131 1432.86 562.281L1430.35 562.962L1428.22 561.479C1427.75 561.153 1427.13 561.59 1427.28 562.142L1427.96 564.647L1426.48 566.779C1426.15 567.248 1426.59 567.869 1427.14 567.719L1429.65 567.038L1431.78 568.521C1432.25 568.847 1432.87 568.41 1432.72 567.858L1432.04 565.353L1433.52 563.221Z" fill="#EFEFF1"/>
<path fill-rule="evenodd" clip-rule="evenodd" d="M1508.28 809.219C1508.83 809.061 1508.88 808.304 1508.36 808.071L1505.99 807.015L1505.27 804.519C1505.12 803.97 1504.36 803.917 1504.13 804.439L1503.07 806.811L1500.57 807.526C1500.02 807.684 1499.97 808.441 1500.49 808.674L1502.87 809.729L1503.58 812.226C1503.74 812.775 1504.5 812.828 1504.73 812.306L1505.78 809.934L1508.28 809.219Z" fill="#EFEFF1"/>
<path fill-rule="evenodd" clip-rule="evenodd" d="M234.983 826.551C235.476 826.261 235.338 825.514 234.775 825.419L232.214 824.989L230.899 822.75C230.609 822.258 229.862 822.396 229.767 822.959L229.337 825.52L227.098 826.835C226.606 827.125 226.744 827.871 227.307 827.966L229.868 828.397L231.183 830.635C231.473 831.128 232.219 830.99 232.314 830.427L232.745 827.866L234.983 826.551Z" fill="#EFEFF1"/>
<path fill-rule="evenodd" clip-rule="evenodd" d="M521.522 4.22092C521.848 3.75161 521.41 3.13127 520.859 3.28086L518.353 3.96164L516.221 2.47891C515.752 2.15277 515.132 2.59019 515.281 3.14177L515.962 5.6475L514.479 7.77908C514.153 8.24839 514.591 8.86873 515.142 8.71913L517.648 8.03836L519.78 9.52109C520.249 9.84723 520.869 9.40981 520.72 8.85823L520.039 6.3525L521.522 4.22092Z" fill="#EFEFF1"/>
<path fill-rule="evenodd" clip-rule="evenodd" d="M312.814 190.273C312.727 189.708 311.983 189.559 311.686 190.047L310.335 192.265L307.768 192.655C307.203 192.741 307.054 193.485 307.542 193.783L309.76 195.133L310.15 197.7C310.236 198.265 310.981 198.414 311.278 197.926L312.628 195.708L315.195 195.318C315.76 195.232 315.91 194.488 315.422 194.19L313.204 192.84L312.814 190.273Z" fill="#EFEFF1"/>
<path fill-rule="evenodd" clip-rule="evenodd" d="M12.1917 364.631C12.6951 364.361 12.5863 363.609 12.0268 363.493L9.48462 362.964L8.2564 360.677C7.98584 360.173 7.23463 360.282 7.11802 360.841L6.58937 363.384L4.30167 364.612C3.79826 364.882 3.90707 365.634 4.46655 365.75L7.00873 366.279L8.23695 368.567C8.50751 369.07 9.25872 368.961 9.37532 368.402L9.90398 365.859L12.1917 364.631Z" fill="#EFEFF1"/>
</svg>
