<svg width="161" height="51" viewBox="0 0 161 51" fill="none" xmlns="http://www.w3.org/2000/svg">
<path d="M25.4205 0C13.7209 0 4.23633 9.51405 4.23633 21.25C4.26116 27.5487 7.06986 33.5121 11.9053 37.5307C10.4001 45.3815 10.7343 50.9762 12.71 51C14.3191 50.9983 16.7001 47.2997 18.8563 41.4524C20.9758 42.146 23.1911 42.4996 25.4205 42.5C27.6506 42.4994 29.8667 42.1455 31.9868 41.4515C34.1419 47.2961 36.5219 50.9947 38.1311 51C40.1177 50.9991 40.4567 45.3949 38.9462 37.522C43.7754 33.5034 46.5802 27.544 46.6048 21.25C46.6048 9.51405 37.1202 0 25.4205 0ZM18.8191 16.8053H19.3115C19.6339 16.8053 19.9318 16.8941 20.1961 17.037C20.7822 17.3536 21.1837 17.9668 21.1837 18.6839V29.8023C21.1837 30.8429 20.3488 31.6803 19.3115 31.6803H18.8191C17.7818 31.6803 16.9469 30.8429 16.9469 29.8023V21.6472V18.6839C16.9469 17.6434 17.7818 16.8053 18.8191 16.8053ZM31.5296 16.8053H32.0215C33.0587 16.8053 33.8942 17.6433 33.8942 18.6838V21.6472V29.8023C33.8942 30.8429 33.0587 31.6803 32.0215 31.6803H31.5296C30.4923 31.6803 29.6574 30.8429 29.6574 29.8023V18.6838C29.6574 17.9667 30.0584 17.3531 30.6446 17.0365C30.9089 16.8938 31.2072 16.8053 31.5296 16.8053Z" fill="#EFEFF1"/>
<path d="M60.8789 27.1492V23.7492H66.8104C67.6239 23.7492 68.3357 23.5905 68.9458 23.2732C69.5786 22.9332 70.0756 22.4685 70.4372 21.8792C70.7988 21.2672 70.9795 20.5532 70.9795 19.7372C70.9795 18.9212 70.7988 18.2185 70.4372 17.6292C70.0756 17.0172 69.5786 16.5525 68.9458 16.2352C68.3357 15.8952 67.6239 15.7252 66.8104 15.7252H60.8789V12.3252H67.0138C68.5052 12.3252 69.8383 12.6312 71.0134 13.2432C72.2109 13.8552 73.1487 14.7165 73.8266 15.8272C74.5272 16.9379 74.8774 18.2412 74.8774 19.7372C74.8774 21.2332 74.5272 22.5365 73.8266 23.6472C73.1487 24.7579 72.2109 25.6192 71.0134 26.2312C69.8383 26.8432 68.5052 27.1492 67.0138 27.1492H60.8789ZM58.2012 36.1252V12.3252H62.0991V36.1252H58.2012ZM76.5211 36.1252V19.8052H80.2495V36.1252H76.5211ZM78.3853 16.8132C77.7525 16.8132 77.2216 16.5979 76.7922 16.1672C76.3855 15.7365 76.1821 15.2039 76.1821 14.5692C76.1821 13.9345 76.3855 13.4019 76.7922 12.9712C77.2216 12.5405 77.7525 12.3252 78.3853 12.3252C79.0405 12.3252 79.5716 12.5405 79.9783 12.9712C80.3851 13.4019 80.5884 13.9345 80.5884 14.5692C80.5884 15.2039 80.3851 15.7365 79.9783 16.1672C79.5716 16.5979 79.0405 16.8132 78.3853 16.8132ZM93.8879 36.1252V26.7072C93.8879 25.6192 93.5377 24.7239 92.8371 24.0212C92.1592 23.3185 91.278 22.9672 90.1933 22.9672C89.4703 22.9672 88.8263 23.1259 88.2614 23.4432C87.6964 23.7605 87.2557 24.2025 86.9395 24.7692C86.6232 25.3359 86.4649 25.9819 86.4649 26.7072L85.0075 25.8912C85.0075 24.6445 85.2786 23.5452 85.8209 22.5932C86.3632 21.6185 87.1089 20.8592 88.058 20.3152C89.0297 19.7485 90.1143 19.4652 91.3119 19.4652C92.5321 19.4652 93.6167 19.7825 94.5658 20.4172C95.5148 21.0292 96.2605 21.8339 96.8028 22.8312C97.3451 23.8059 97.6163 24.8259 97.6163 25.8912V36.1252H93.8879ZM82.7365 36.1252V19.8052H86.4649V36.1252H82.7365ZM106.489 43.2652C104.772 43.2652 103.269 42.9479 101.981 42.3132C100.693 41.7012 99.6538 40.8285 98.863 39.6952L101.303 37.2472C101.959 38.0632 102.704 38.6752 103.54 39.0832C104.377 39.4912 105.382 39.6952 106.557 39.6952C108.026 39.6952 109.19 39.3099 110.048 38.5392C110.907 37.7912 111.336 36.7599 111.336 35.4452V31.4332L111.98 27.8292L111.336 24.1912V19.8052H115.065V35.4452C115.065 37.0092 114.703 38.3692 113.98 39.5252C113.257 40.7039 112.251 41.6219 110.963 42.2792C109.675 42.9365 108.184 43.2652 106.489 43.2652ZM106.32 35.7852C104.874 35.7852 103.563 35.4339 102.388 34.7312C101.236 34.0059 100.32 33.0199 99.6426 31.7732C98.9873 30.5265 98.6596 29.1325 98.6596 27.5912C98.6596 26.0499 98.9873 24.6672 99.6426 23.4432C100.32 22.2192 101.236 21.2559 102.388 20.5532C103.563 19.8279 104.874 19.4652 106.32 19.4652C107.608 19.4652 108.738 19.7259 109.709 20.2472C110.681 20.7685 111.438 21.4939 111.98 22.4232C112.523 23.3299 112.794 24.3952 112.794 25.6192V29.6312C112.794 30.8325 112.511 31.8979 111.946 32.8272C111.404 33.7565 110.647 34.4819 109.675 35.0032C108.704 35.5245 107.585 35.7852 106.32 35.7852ZM107.066 32.2492C107.969 32.2492 108.76 32.0565 109.438 31.6712C110.116 31.2859 110.636 30.7532 110.997 30.0732C111.381 29.3705 111.574 28.5545 111.574 27.6252C111.574 26.6959 111.381 25.8912 110.997 25.2112C110.636 24.5085 110.116 23.9645 109.438 23.5792C108.76 23.1939 107.969 23.0012 107.066 23.0012C106.162 23.0012 105.36 23.1939 104.659 23.5792C103.981 23.9645 103.45 24.5085 103.066 25.2112C102.682 25.8912 102.49 26.6959 102.49 27.6252C102.49 28.5319 102.682 29.3365 103.066 30.0392C103.45 30.7419 103.981 31.2859 104.659 31.6712C105.36 32.0565 106.162 32.2492 107.066 32.2492ZM117.512 36.1252V19.8052H121.24V36.1252H117.512ZM128.324 36.1252V26.4012C128.324 25.3132 127.985 24.4745 127.307 23.8852C126.629 23.2732 125.793 22.9672 124.799 22.9672C124.121 22.9672 123.511 23.1032 122.969 23.3752C122.449 23.6472 122.031 24.0439 121.715 24.5652C121.398 25.0639 121.24 25.6759 121.24 26.4012L119.783 25.5852C119.783 24.3385 120.054 23.2619 120.596 22.3552C121.138 21.4485 121.873 20.7459 122.799 20.2472C123.726 19.7259 124.765 19.4652 125.918 19.4652C127.07 19.4652 128.109 19.7145 129.036 20.2132C129.962 20.7119 130.697 21.4145 131.239 22.3212C131.781 23.2279 132.052 24.3159 132.052 25.5852V36.1252H128.324ZM139.136 36.1252V26.4012C139.136 25.3132 138.798 24.4745 138.12 23.8852C137.442 23.2732 136.606 22.9672 135.611 22.9672C134.956 22.9672 134.357 23.1032 133.815 23.3752C133.273 23.6472 132.843 24.0439 132.527 24.5652C132.211 25.0639 132.052 25.6759 132.052 26.4012L129.951 25.5852C130.064 24.3385 130.426 23.2619 131.036 22.3552C131.646 21.4485 132.425 20.7459 133.374 20.2472C134.346 19.7259 135.408 19.4652 136.561 19.4652C137.736 19.4652 138.798 19.7145 139.747 20.2132C140.696 20.7119 141.453 21.4145 142.018 22.3212C142.583 23.2279 142.865 24.3159 142.865 25.5852V36.1252H139.136ZM151.689 36.4652C150.31 36.4652 149.079 36.1592 147.994 35.5472C146.932 34.9352 146.096 34.0965 145.486 33.0312C144.898 31.9432 144.605 30.6965 144.605 29.2912V19.8052H148.333V29.1212C148.333 29.9145 148.457 30.5945 148.706 31.1612C148.977 31.7052 149.361 32.1245 149.858 32.4192C150.378 32.7139 150.988 32.8612 151.689 32.8612C152.773 32.8612 153.598 32.5439 154.163 31.9092C154.751 31.2519 155.044 30.3225 155.044 29.1212V19.8052H158.773V29.2912C158.773 30.7192 158.468 31.9772 157.858 33.0652C157.27 34.1305 156.445 34.9692 155.383 35.5812C154.321 36.1705 153.09 36.4652 151.689 36.4652Z" fill="#EFEFF1"/>
</svg>
