<svg width="115" height="138" viewBox="0 0 115 138" fill="none" xmlns="http://www.w3.org/2000/svg">
<path d="M57.5 0C25.7439 0 0 25.7439 0 57.5C0.0673701 74.5438 7.69103 90.6801 20.8157 101.554C16.7302 122.797 17.6374 137.936 23 138C27.3674 137.996 33.8303 127.987 39.6829 112.165C45.4357 114.042 51.4488 114.999 57.5 115C63.5531 114.998 69.5682 114.041 75.3228 112.163C81.1724 127.978 87.6322 137.986 92 138C97.3923 137.998 98.3122 122.833 94.2124 101.53C107.32 90.6564 114.933 74.5309 115 57.5C115 25.7439 89.2561 0 57.5 0ZM39.5818 45.4733H40.9183C41.7935 45.4733 42.6019 45.7134 43.3194 46.1001C44.9102 46.9568 46.0001 48.616 46.0001 50.5563V80.6416C46.0001 83.4571 43.7337 85.7234 40.9183 85.7234H39.5818C36.7663 85.7234 34.5 83.4571 34.5 80.6416V58.5749V50.5563C34.5 47.7409 36.7663 45.4733 39.5818 45.4733ZM74.0818 45.4733H75.417C78.2325 45.4733 80.4999 47.7408 80.4999 50.5562V58.5748V80.6415C80.4999 83.457 78.2325 85.7233 75.417 85.7233H74.0818C71.2664 85.7233 69 83.457 69 80.6415V50.5562C69 48.6157 70.0885 46.9555 71.6795 46.0988C72.3969 45.7126 73.2069 45.4733 74.0818 45.4733Z" fill="#14CB42"/>
</svg>
