<svg width="1920" height="882" viewBox="0 0 1920 882" fill="none" xmlns="http://www.w3.org/2000/svg">
<g clip-path="url(#clip0_14_484)">
<g clip-path="url(#clip1_14_484)">
<path fill-rule="evenodd" clip-rule="evenodd" d="M275.935 161.655C275.617 160.782 274.383 160.782 274.065 161.655L272.622 165.622L268.655 167.065C267.782 167.383 267.782 168.617 268.655 168.935L272.622 170.378L274.065 174.345C274.383 175.218 275.617 175.218 275.935 174.345L277.378 170.378L281.345 168.935C282.218 168.617 282.218 167.383 281.345 167.065L277.378 165.622L275.935 161.655Z" fill="#14CB42"/>
</g>
<g clip-path="url(#clip2_14_484)">
<path fill-rule="evenodd" clip-rule="evenodd" d="M1087.48 791.862C1088.01 791.099 1087.3 790.091 1086.4 790.334L1082.33 791.441L1078.86 789.03C1078.1 788.5 1077.09 789.211 1077.33 790.108L1078.44 794.182L1076.03 797.647C1075.5 798.41 1076.21 799.418 1077.11 799.175L1081.18 798.068L1084.65 800.479C1085.41 801.009 1086.42 800.298 1086.18 799.401L1085.07 795.328L1087.48 791.862Z" fill="#14CB42"/>
</g>
<g clip-path="url(#clip3_14_484)">
<path fill-rule="evenodd" clip-rule="evenodd" d="M1350.48 730.862C1351.01 730.099 1350.3 729.091 1349.4 729.334L1345.33 730.441L1341.86 728.03C1341.1 727.5 1340.09 728.211 1340.33 729.108L1341.44 733.182L1339.03 736.647C1338.5 737.41 1339.21 738.418 1340.11 738.175L1344.18 737.068L1347.65 739.479C1348.41 740.009 1349.42 739.298 1349.18 738.401L1348.07 734.328L1350.48 730.862Z" fill="#14CB42"/>
</g>
<g clip-path="url(#clip4_14_484)">
<path fill-rule="evenodd" clip-rule="evenodd" d="M155.935 263.655C155.617 262.782 154.383 262.782 154.065 263.655L152.622 267.622L148.655 269.065C147.782 269.383 147.782 270.617 148.655 270.935L152.622 272.378L154.065 276.345C154.383 277.218 155.617 277.218 155.935 276.345L157.378 272.378L161.345 270.935C162.218 270.617 162.218 269.383 161.345 269.065L157.378 267.622L155.935 263.655Z" fill="#14CB42"/>
</g>
<g clip-path="url(#clip5_14_484)">
<path fill-rule="evenodd" clip-rule="evenodd" d="M803.762 115.318C804.292 114.555 803.581 113.546 802.684 113.789L798.611 114.896L795.145 112.486C794.382 111.955 793.374 112.667 793.617 113.563L794.724 117.637L792.313 121.102C791.783 121.865 792.494 122.874 793.391 122.63L797.465 121.524L800.93 123.934C801.693 124.464 802.702 123.753 802.458 122.857L801.352 118.783L803.762 115.318Z" fill="#14CB42"/>
</g>
<g clip-path="url(#clip6_14_484)">
<path fill-rule="evenodd" clip-rule="evenodd" d="M174.935 854.655C174.617 853.782 173.383 853.782 173.065 854.655L171.622 858.622L167.655 860.065C166.782 860.383 166.782 861.617 167.655 861.935L171.622 863.378L173.065 867.345C173.383 868.218 174.617 868.218 174.935 867.345L176.378 863.378L180.345 861.935C181.218 861.617 181.218 860.383 180.345 860.065L176.378 858.622L174.935 854.655Z" fill="#14CB42"/>
<path fill-rule="evenodd" clip-rule="evenodd" d="M174.935 854.655C174.617 853.782 173.383 853.782 173.065 854.655L171.622 858.622L167.655 860.065C166.782 860.383 166.782 861.617 167.655 861.935L171.622 863.378L173.065 867.345C173.383 868.218 174.617 868.218 174.935 867.345L176.378 863.378L180.345 861.935C181.218 861.617 181.218 860.383 180.345 860.065L176.378 858.622L174.935 854.655Z" fill="#14CB42"/>
<path fill-rule="evenodd" clip-rule="evenodd" d="M174.935 854.655C174.617 853.782 173.383 853.782 173.065 854.655L171.622 858.622L167.655 860.065C166.782 860.383 166.782 861.617 167.655 861.935L171.622 863.378L173.065 867.345C173.383 868.218 174.617 868.218 174.935 867.345L176.378 863.378L180.345 861.935C181.218 861.617 181.218 860.383 180.345 860.065L176.378 858.622L174.935 854.655Z" fill="#14CB42"/>
</g>
<g clip-path="url(#clip7_14_484)">
<path fill-rule="evenodd" clip-rule="evenodd" d="M364.935 263.655C364.617 262.782 363.383 262.782 363.065 263.655L361.622 267.622L357.655 269.065C356.782 269.383 356.782 270.617 357.655 270.935L361.622 272.378L363.065 276.345C363.383 277.218 364.617 277.218 364.935 276.345L366.378 272.378L370.345 270.935C371.218 270.617 371.218 269.383 370.345 269.065L366.378 267.622L364.935 263.655Z" fill="#14CB42"/>
<path fill-rule="evenodd" clip-rule="evenodd" d="M364.935 263.655C364.617 262.782 363.383 262.782 363.065 263.655L361.622 267.622L357.655 269.065C356.782 269.383 356.782 270.617 357.655 270.935L361.622 272.378L363.065 276.345C363.383 277.218 364.617 277.218 364.935 276.345L366.378 272.378L370.345 270.935C371.218 270.617 371.218 269.383 370.345 269.065L366.378 267.622L364.935 263.655Z" fill="#14CB42"/>
<path fill-rule="evenodd" clip-rule="evenodd" d="M364.935 263.655C364.617 262.782 363.383 262.782 363.065 263.655L361.622 267.622L357.655 269.065C356.782 269.383 356.782 270.617 357.655 270.935L361.622 272.378L363.065 276.345C363.383 277.218 364.617 277.218 364.935 276.345L366.378 272.378L370.345 270.935C371.218 270.617 371.218 269.383 370.345 269.065L366.378 267.622L364.935 263.655Z" fill="#14CB42"/>
</g>
<g clip-path="url(#clip8_14_484)">
<path fill-rule="evenodd" clip-rule="evenodd" d="M496.935 515.655C496.617 514.782 495.383 514.782 495.065 515.655L493.622 519.622L489.655 521.065C488.782 521.383 488.782 522.617 489.655 522.935L493.622 524.378L495.065 528.345C495.383 529.218 496.617 529.218 496.935 528.345L498.378 524.378L502.345 522.935C503.218 522.617 503.218 521.383 502.345 521.065L498.378 519.622L496.935 515.655Z" fill="#14CB42"/>
<path fill-rule="evenodd" clip-rule="evenodd" d="M496.935 515.655C496.617 514.782 495.383 514.782 495.065 515.655L493.622 519.622L489.655 521.065C488.782 521.383 488.782 522.617 489.655 522.935L493.622 524.378L495.065 528.345C495.383 529.218 496.617 529.218 496.935 528.345L498.378 524.378L502.345 522.935C503.218 522.617 503.218 521.383 502.345 521.065L498.378 519.622L496.935 515.655Z" fill="#14CB42"/>
<path fill-rule="evenodd" clip-rule="evenodd" d="M496.935 515.655C496.617 514.782 495.383 514.782 495.065 515.655L493.622 519.622L489.655 521.065C488.782 521.383 488.782 522.617 489.655 522.935L493.622 524.378L495.065 528.345C495.383 529.218 496.617 529.218 496.935 528.345L498.378 524.378L502.345 522.935C503.218 522.617 503.218 521.383 502.345 521.065L498.378 519.622L496.935 515.655Z" fill="#14CB42"/>
</g>
<g clip-path="url(#clip9_14_484)">
<path fill-rule="evenodd" clip-rule="evenodd" d="M628.935 767.655C628.617 766.782 627.383 766.782 627.065 767.655L625.622 771.622L621.655 773.065C620.782 773.383 620.782 774.617 621.655 774.935L625.622 776.378L627.065 780.345C627.383 781.218 628.617 781.218 628.935 780.345L630.378 776.378L634.345 774.935C635.218 774.617 635.218 773.383 634.345 773.065L630.378 771.622L628.935 767.655Z" fill="#14CB42"/>
<path fill-rule="evenodd" clip-rule="evenodd" d="M628.935 767.655C628.617 766.782 627.383 766.782 627.065 767.655L625.622 771.622L621.655 773.065C620.782 773.383 620.782 774.617 621.655 774.935L625.622 776.378L627.065 780.345C627.383 781.218 628.617 781.218 628.935 780.345L630.378 776.378L634.345 774.935C635.218 774.617 635.218 773.383 634.345 773.065L630.378 771.622L628.935 767.655Z" fill="#14CB42"/>
<path fill-rule="evenodd" clip-rule="evenodd" d="M628.935 767.655C628.617 766.782 627.383 766.782 627.065 767.655L625.622 771.622L621.655 773.065C620.782 773.383 620.782 774.617 621.655 774.935L625.622 776.378L627.065 780.345C627.383 781.218 628.617 781.218 628.935 780.345L630.378 776.378L634.345 774.935C635.218 774.617 635.218 773.383 634.345 773.065L630.378 771.622L628.935 767.655Z" fill="#14CB42"/>
</g>
<g clip-path="url(#clip10_14_484)">
<path fill-rule="evenodd" clip-rule="evenodd" d="M1644.93 175.655C1644.62 174.782 1643.38 174.782 1643.06 175.655L1641.62 179.622L1637.65 181.065C1636.78 181.383 1636.78 182.617 1637.65 182.935L1641.62 184.378L1643.06 188.345C1643.38 189.218 1644.62 189.218 1644.93 188.345L1646.38 184.378L1650.34 182.935C1651.22 182.617 1651.22 181.383 1650.34 181.065L1646.38 179.622L1644.93 175.655Z" fill="#14CB42"/>
<path fill-rule="evenodd" clip-rule="evenodd" d="M1644.93 175.655C1644.62 174.782 1643.38 174.782 1643.06 175.655L1641.62 179.622L1637.65 181.065C1636.78 181.383 1636.78 182.617 1637.65 182.935L1641.62 184.378L1643.06 188.345C1643.38 189.218 1644.62 189.218 1644.93 188.345L1646.38 184.378L1650.34 182.935C1651.22 182.617 1651.22 181.383 1650.34 181.065L1646.38 179.622L1644.93 175.655Z" fill="#14CB42"/>
<path fill-rule="evenodd" clip-rule="evenodd" d="M1644.93 175.655C1644.62 174.782 1643.38 174.782 1643.06 175.655L1641.62 179.622L1637.65 181.065C1636.78 181.383 1636.78 182.617 1637.65 182.935L1641.62 184.378L1643.06 188.345C1643.38 189.218 1644.62 189.218 1644.93 188.345L1646.38 184.378L1650.34 182.935C1651.22 182.617 1651.22 181.383 1650.34 181.065L1646.38 179.622L1644.93 175.655Z" fill="#14CB42"/>
</g>
<g clip-path="url(#clip11_14_484)">
<path fill-rule="evenodd" clip-rule="evenodd" d="M792.479 423.862C793.009 423.099 792.298 422.091 791.401 422.334L787.328 423.441L783.862 421.03C783.099 420.5 782.091 421.211 782.334 422.108L783.441 426.182L781.03 429.647C780.5 430.41 781.211 431.418 782.108 431.175L786.181 430.068L789.647 432.479C790.41 433.009 791.418 432.298 791.175 431.401L790.068 427.328L792.479 423.862Z" fill="#14CB42"/>
<path fill-rule="evenodd" clip-rule="evenodd" d="M792.479 423.862C793.009 423.099 792.298 422.091 791.401 422.334L787.328 423.441L783.862 421.03C783.099 420.5 782.091 421.211 782.334 422.108L783.441 426.182L781.03 429.647C780.5 430.41 781.211 431.418 782.108 431.175L786.181 430.068L789.647 432.479C790.41 433.009 791.418 432.298 791.175 431.401L790.068 427.328L792.479 423.862Z" fill="#14CB42"/>
<path fill-rule="evenodd" clip-rule="evenodd" d="M792.479 423.862C793.009 423.099 792.298 422.091 791.401 422.334L787.328 423.441L783.862 421.03C783.099 420.5 782.091 421.211 782.334 422.108L783.441 426.182L781.03 429.647C780.5 430.41 781.211 431.418 782.108 431.175L786.181 430.068L789.647 432.479C790.41 433.009 791.418 432.298 791.175 431.401L790.068 427.328L792.479 423.862Z" fill="#14CB42"/>
</g>
<g clip-path="url(#clip12_14_484)">
<path fill-rule="evenodd" clip-rule="evenodd" d="M1020.48 208.862C1021.01 208.099 1020.3 207.091 1019.4 207.334L1015.33 208.441L1011.86 206.03C1011.1 205.5 1010.09 206.211 1010.33 207.108L1011.44 211.182L1009.03 214.647C1008.5 215.41 1009.21 216.418 1010.11 216.175L1014.18 215.068L1017.65 217.479C1018.41 218.009 1019.42 217.298 1019.18 216.401L1018.07 212.328L1020.48 208.862Z" fill="#14CB42"/>
<path fill-rule="evenodd" clip-rule="evenodd" d="M1020.48 208.862C1021.01 208.099 1020.3 207.091 1019.4 207.334L1015.33 208.441L1011.86 206.03C1011.1 205.5 1010.09 206.211 1010.33 207.108L1011.44 211.182L1009.03 214.647C1008.5 215.41 1009.21 216.418 1010.11 216.175L1014.18 215.068L1017.65 217.479C1018.41 218.009 1019.42 217.298 1019.18 216.401L1018.07 212.328L1020.48 208.862Z" fill="#14CB42"/>
<path fill-rule="evenodd" clip-rule="evenodd" d="M1020.48 208.862C1021.01 208.099 1020.3 207.091 1019.4 207.334L1015.33 208.441L1011.86 206.03C1011.1 205.5 1010.09 206.211 1010.33 207.108L1011.44 211.182L1009.03 214.647C1008.5 215.41 1009.21 216.418 1010.11 216.175L1014.18 215.068L1017.65 217.479C1018.41 218.009 1019.42 217.298 1019.18 216.401L1018.07 212.328L1020.48 208.862Z" fill="#14CB42"/>
</g>
<g clip-path="url(#clip13_14_484)">
<path fill-rule="evenodd" clip-rule="evenodd" d="M1240.48 213.862C1241.01 213.099 1240.3 212.091 1239.4 212.334L1235.33 213.441L1231.86 211.03C1231.1 210.5 1230.09 211.211 1230.33 212.108L1231.44 216.182L1229.03 219.647C1228.5 220.41 1229.21 221.418 1230.11 221.175L1234.18 220.068L1237.65 222.479C1238.41 223.009 1239.42 222.298 1239.18 221.401L1238.07 217.328L1240.48 213.862Z" fill="#14CB42"/>
<path fill-rule="evenodd" clip-rule="evenodd" d="M1240.48 213.862C1241.01 213.099 1240.3 212.091 1239.4 212.334L1235.33 213.441L1231.86 211.03C1231.1 210.5 1230.09 211.211 1230.33 212.108L1231.44 216.182L1229.03 219.647C1228.5 220.41 1229.21 221.418 1230.11 221.175L1234.18 220.068L1237.65 222.479C1238.41 223.009 1239.42 222.298 1239.18 221.401L1238.07 217.328L1240.48 213.862Z" fill="#14CB42"/>
<path fill-rule="evenodd" clip-rule="evenodd" d="M1240.48 213.862C1241.01 213.099 1240.3 212.091 1239.4 212.334L1235.33 213.441L1231.86 211.03C1231.1 210.5 1230.09 211.211 1230.33 212.108L1231.44 216.182L1229.03 219.647C1228.5 220.41 1229.21 221.418 1230.11 221.175L1234.18 220.068L1237.65 222.479C1238.41 223.009 1239.42 222.298 1239.18 221.401L1238.07 217.328L1240.48 213.862Z" fill="#14CB42"/>
</g>
<g clip-path="url(#clip14_14_484)">
<path fill-rule="evenodd" clip-rule="evenodd" d="M1159.48 447.862C1160.01 447.099 1159.3 446.091 1158.4 446.334L1154.33 447.441L1150.86 445.03C1150.1 444.5 1149.09 445.211 1149.33 446.108L1150.44 450.182L1148.03 453.647C1147.5 454.41 1148.21 455.418 1149.11 455.175L1153.18 454.068L1156.65 456.479C1157.41 457.009 1158.42 456.298 1158.18 455.401L1157.07 451.328L1159.48 447.862Z" fill="#14CB42"/>
<path fill-rule="evenodd" clip-rule="evenodd" d="M1159.48 447.862C1160.01 447.099 1159.3 446.091 1158.4 446.334L1154.33 447.441L1150.86 445.03C1150.1 444.5 1149.09 445.211 1149.33 446.108L1150.44 450.182L1148.03 453.647C1147.5 454.41 1148.21 455.418 1149.11 455.175L1153.18 454.068L1156.65 456.479C1157.41 457.009 1158.42 456.298 1158.18 455.401L1157.07 451.328L1159.48 447.862Z" fill="#14CB42"/>
<path fill-rule="evenodd" clip-rule="evenodd" d="M1159.48 447.862C1160.01 447.099 1159.3 446.091 1158.4 446.334L1154.33 447.441L1150.86 445.03C1150.1 444.5 1149.09 445.211 1149.33 446.108L1150.44 450.182L1148.03 453.647C1147.5 454.41 1148.21 455.418 1149.11 455.175L1153.18 454.068L1156.65 456.479C1157.41 457.009 1158.42 456.298 1158.18 455.401L1157.07 451.328L1159.48 447.862Z" fill="#14CB42"/>
</g>
<g clip-path="url(#clip15_14_484)">
<path fill-rule="evenodd" clip-rule="evenodd" d="M143.479 484.862C144.009 484.099 143.298 483.091 142.401 483.334L138.328 484.441L134.862 482.03C134.099 481.5 133.091 482.211 133.334 483.108L134.441 487.182L132.03 490.647C131.5 491.41 132.211 492.418 133.108 492.175L137.181 491.068L140.647 493.479C141.41 494.009 142.418 493.298 142.175 492.401L141.068 488.328L143.479 484.862Z" fill="#14CB42"/>
<path fill-rule="evenodd" clip-rule="evenodd" d="M143.479 484.862C144.009 484.099 143.298 483.091 142.401 483.334L138.328 484.441L134.862 482.03C134.099 481.5 133.091 482.211 133.334 483.108L134.441 487.182L132.03 490.647C131.5 491.41 132.211 492.418 133.108 492.175L137.181 491.068L140.647 493.479C141.41 494.009 142.418 493.298 142.175 492.401L141.068 488.328L143.479 484.862Z" fill="#14CB42"/>
<path fill-rule="evenodd" clip-rule="evenodd" d="M143.479 484.862C144.009 484.099 143.298 483.091 142.401 483.334L138.328 484.441L134.862 482.03C134.099 481.5 133.091 482.211 133.334 483.108L134.441 487.182L132.03 490.647C131.5 491.41 132.211 492.418 133.108 492.175L137.181 491.068L140.647 493.479C141.41 494.009 142.418 493.298 142.175 492.401L141.068 488.328L143.479 484.862Z" fill="#14CB42"/>
</g>
<g clip-path="url(#clip16_14_484)">
<path fill-rule="evenodd" clip-rule="evenodd" d="M1526.48 593.862C1527.01 593.099 1526.3 592.091 1525.4 592.334L1521.33 593.441L1517.86 591.03C1517.1 590.5 1516.09 591.211 1516.33 592.108L1517.44 596.182L1515.03 599.647C1514.5 600.41 1515.21 601.418 1516.11 601.175L1520.18 600.068L1523.65 602.479C1524.41 603.009 1525.42 602.298 1525.18 601.401L1524.07 597.328L1526.48 593.862Z" fill="#14CB42"/>
<path fill-rule="evenodd" clip-rule="evenodd" d="M1526.48 593.862C1527.01 593.099 1526.3 592.091 1525.4 592.334L1521.33 593.441L1517.86 591.03C1517.1 590.5 1516.09 591.211 1516.33 592.108L1517.44 596.182L1515.03 599.647C1514.5 600.41 1515.21 601.418 1516.11 601.175L1520.18 600.068L1523.65 602.479C1524.41 603.009 1525.42 602.298 1525.18 601.401L1524.07 597.328L1526.48 593.862Z" fill="#14CB42"/>
<path fill-rule="evenodd" clip-rule="evenodd" d="M1526.48 593.862C1527.01 593.099 1526.3 592.091 1525.4 592.334L1521.33 593.441L1517.86 591.03C1517.1 590.5 1516.09 591.211 1516.33 592.108L1517.44 596.182L1515.03 599.647C1514.5 600.41 1515.21 601.418 1516.11 601.175L1520.18 600.068L1523.65 602.479C1524.41 603.009 1525.42 602.298 1525.18 601.401L1524.07 597.328L1526.48 593.862Z" fill="#14CB42"/>
</g>
<g clip-path="url(#clip17_14_484)">
<path fill-rule="evenodd" clip-rule="evenodd" d="M1777.48 694.862C1778.01 694.099 1777.3 693.091 1776.4 693.334L1772.33 694.441L1768.86 692.03C1768.1 691.5 1767.09 692.211 1767.33 693.108L1768.44 697.182L1766.03 700.647C1765.5 701.41 1766.21 702.418 1767.11 702.175L1771.18 701.068L1774.65 703.479C1775.41 704.009 1776.42 703.298 1776.18 702.401L1775.07 698.328L1777.48 694.862Z" fill="#14CB42"/>
<path fill-rule="evenodd" clip-rule="evenodd" d="M1777.48 694.862C1778.01 694.099 1777.3 693.091 1776.4 693.334L1772.33 694.441L1768.86 692.03C1768.1 691.5 1767.09 692.211 1767.33 693.108L1768.44 697.182L1766.03 700.647C1765.5 701.41 1766.21 702.418 1767.11 702.175L1771.18 701.068L1774.65 703.479C1775.41 704.009 1776.42 703.298 1776.18 702.401L1775.07 698.328L1777.48 694.862Z" fill="#14CB42"/>
<path fill-rule="evenodd" clip-rule="evenodd" d="M1777.48 694.862C1778.01 694.099 1777.3 693.091 1776.4 693.334L1772.33 694.441L1768.86 692.03C1768.1 691.5 1767.09 692.211 1767.33 693.108L1768.44 697.182L1766.03 700.647C1765.5 701.41 1766.21 702.418 1767.11 702.175L1771.18 701.068L1774.65 703.479C1775.41 704.009 1776.42 703.298 1776.18 702.401L1775.07 698.328L1777.48 694.862Z" fill="#14CB42"/>
</g>
<g clip-path="url(#clip18_14_484)">
<path fill-rule="evenodd" clip-rule="evenodd" d="M1729.48 355.862C1730.01 355.099 1729.3 354.091 1728.4 354.334L1724.33 355.441L1720.86 353.03C1720.1 352.5 1719.09 353.211 1719.33 354.108L1720.44 358.182L1718.03 361.647C1717.5 362.41 1718.21 363.418 1719.11 363.175L1723.18 362.068L1726.65 364.479C1727.41 365.009 1728.42 364.298 1728.18 363.401L1727.07 359.328L1729.48 355.862Z" fill="#14CB42"/>
<path fill-rule="evenodd" clip-rule="evenodd" d="M1729.48 355.862C1730.01 355.099 1729.3 354.091 1728.4 354.334L1724.33 355.441L1720.86 353.03C1720.1 352.5 1719.09 353.211 1719.33 354.108L1720.44 358.182L1718.03 361.647C1717.5 362.41 1718.21 363.418 1719.11 363.175L1723.18 362.068L1726.65 364.479C1727.41 365.009 1728.42 364.298 1728.18 363.401L1727.07 359.328L1729.48 355.862Z" fill="#14CB42"/>
<path fill-rule="evenodd" clip-rule="evenodd" d="M1729.48 355.862C1730.01 355.099 1729.3 354.091 1728.4 354.334L1724.33 355.441L1720.86 353.03C1720.1 352.5 1719.09 353.211 1719.33 354.108L1720.44 358.182L1718.03 361.647C1717.5 362.41 1718.21 363.418 1719.11 363.175L1723.18 362.068L1726.65 364.479C1727.41 365.009 1728.42 364.298 1728.18 363.401L1727.07 359.328L1729.48 355.862Z" fill="#14CB42"/>
</g>
</g>
<defs>
<clipPath id="clip0_14_484">
<rect width="1920" height="882" fill="white"/>
</clipPath>
<clipPath id="clip1_14_484">
<rect width="14" height="14" fill="white" transform="translate(268 161)"/>
</clipPath>
<clipPath id="clip2_14_484">
<rect width="14" height="14" fill="white" transform="translate(1083.44 785) rotate(54.8114)"/>
</clipPath>
<clipPath id="clip3_14_484">
<rect width="14" height="14" fill="white" transform="translate(1346.44 724) rotate(54.8114)"/>
</clipPath>
<clipPath id="clip4_14_484">
<rect width="14" height="14" fill="white" transform="translate(148 263)"/>
</clipPath>
<clipPath id="clip5_14_484">
<rect width="14" height="14" fill="white" transform="translate(799.725 108.455) rotate(54.8114)"/>
</clipPath>
<clipPath id="clip6_14_484">
<rect width="14" height="14" fill="white" transform="translate(167 854)"/>
</clipPath>
<clipPath id="clip7_14_484">
<rect width="14" height="14" fill="white" transform="translate(357 263)"/>
</clipPath>
<clipPath id="clip8_14_484">
<rect width="14" height="14" fill="white" transform="translate(489 515)"/>
</clipPath>
<clipPath id="clip9_14_484">
<rect width="14" height="14" fill="white" transform="translate(621 767)"/>
</clipPath>
<clipPath id="clip10_14_484">
<rect width="14" height="14" fill="white" transform="translate(1637 175)"/>
</clipPath>
<clipPath id="clip11_14_484">
<rect width="14" height="14" fill="white" transform="translate(788.441 417) rotate(54.8114)"/>
</clipPath>
<clipPath id="clip12_14_484">
<rect width="14" height="14" fill="white" transform="translate(1016.44 202) rotate(54.8114)"/>
</clipPath>
<clipPath id="clip13_14_484">
<rect width="14" height="14" fill="white" transform="translate(1236.44 207) rotate(54.8114)"/>
</clipPath>
<clipPath id="clip14_14_484">
<rect width="14" height="14" fill="white" transform="translate(1155.44 441) rotate(54.8114)"/>
</clipPath>
<clipPath id="clip15_14_484">
<rect width="14" height="14" fill="white" transform="translate(139.441 478) rotate(54.8114)"/>
</clipPath>
<clipPath id="clip16_14_484">
<rect width="14" height="14" fill="white" transform="translate(1522.44 587) rotate(54.8114)"/>
</clipPath>
<clipPath id="clip17_14_484">
<rect width="14" height="14" fill="white" transform="translate(1773.44 688) rotate(54.8114)"/>
</clipPath>
<clipPath id="clip18_14_484">
<rect width="14" height="14" fill="white" transform="translate(1725.44 349) rotate(54.8114)"/>
</clipPath>
</defs>
</svg>
